<svg width="20" height="20" viewBox="0 0 20 20" fill="none" xmlns="http://www.w3.org/2000/svg">
<g clip-path="url(#clip0_470_8)">
<path d="M14.375 19.375H5.625C2.875 19.375 0.625 17.125 0.625 14.375V5.625C0.625 2.875 2.875 0.625 5.625 0.625H14.375C17.125 0.625 19.375 2.875 19.375 5.625V14.375C19.375 17.125 17.125 19.375 14.375 19.375Z" stroke="white" stroke-width="2" stroke-miterlimit="10" stroke-linecap="round" stroke-linejoin="round"/>
<path d="M10 14.375C12.4162 14.375 14.375 12.4162 14.375 10C14.375 7.58375 12.4162 5.625 10 5.625C7.58375 5.625 5.625 7.58375 5.625 10C5.625 12.4162 7.58375 14.375 10 14.375Z" stroke="white" stroke-width="2" stroke-miterlimit="10" stroke-linecap="round" stroke-linejoin="round"/>
<path d="M15 5C15.3452 5 15.625 4.72018 15.625 4.375C15.625 4.02982 15.3452 3.75 15 3.75C14.6548 3.75 14.375 4.02982 14.375 4.375C14.375 4.72018 14.6548 5 15 5Z" stroke="white" stroke-width="2" stroke-miterlimit="10" stroke-linecap="round" stroke-linejoin="round"/>
</g>
<defs>
<clipPath id="clip0_470_8">
<rect width="20" height="20" fill="white"/>
</clipPath>
</defs>
</svg>
