<svg width="24" height="24" viewBox="0 0 24 24" fill="none" xmlns="http://www.w3.org/2000/svg">
<path d="M23.4559 5.784C23.1859 6.633 22.8219 7.372 22.3659 8.043L22.3849 8.013C21.9369 8.75967 21.4019 9.62233 20.7799 10.601C20.2466 11.3737 19.9643 11.7737 19.9329 11.801C19.7949 11.974 19.6989 12.186 19.6659 12.419L19.6649 12.426C19.6919 12.638 19.7899 12.823 19.9329 12.961L20.3329 13.407C22.4729 15.6063 23.6766 17.1223 23.9439 17.955C23.9789 18.047 23.9989 18.153 23.9989 18.264C23.9989 18.458 23.9369 18.637 23.8319 18.784L23.8339 18.781C23.6579 18.962 23.4119 19.074 23.1399 19.074C23.1099 19.074 23.0789 19.073 23.0499 19.07H23.0539H20.4229C20.4219 19.07 20.4199 19.07 20.4179 19.07C20.0809 19.07 19.7709 18.952 19.5279 18.756L19.5309 18.758C19.1769 18.467 18.8619 18.152 18.5799 17.81L18.5709 17.798C18.1103 17.2773 17.7016 16.839 17.3449 16.483C16.1569 15.3537 15.2803 14.789 14.7149 14.789C14.6939 14.787 14.6699 14.786 14.6449 14.786C14.4799 14.786 14.3259 14.837 14.1989 14.924L14.2019 14.922C14.0979 15.052 14.0349 15.22 14.0349 15.401C14.0349 15.437 14.0369 15.471 14.0419 15.506V15.502C14.0149 15.816 13.9989 16.181 13.9989 16.55C13.9989 16.669 14.0009 16.787 14.0039 16.905V16.888V18.047C14.0139 18.094 14.0199 18.148 14.0199 18.203C14.0199 18.445 13.9099 18.661 13.7379 18.804L13.7369 18.805C13.3499 18.982 12.8979 19.086 12.4209 19.086C12.3189 19.086 12.2189 19.081 12.1199 19.072L12.1329 19.073C10.5589 19.043 9.09893 18.582 7.85793 17.805L7.89293 17.825C6.38193 16.907 5.12993 15.712 4.17593 14.3L4.14893 14.258C3.24293 13.056 2.39793 11.698 1.67793 10.266L1.60793 10.112C1.18693 9.31 0.75093 8.324 0.37493 7.31L0.31493 7.125C0.16193 6.669 0.0509297 6.139 0.00492969 5.59L0.00292969 5.565C0.00292969 5.05967 0.300263 4.807 0.89493 4.807H3.52493C3.54893 4.805 3.57693 4.804 3.60593 4.804C3.85393 4.804 4.08293 4.889 4.26393 5.032L4.26193 5.03C4.46193 5.249 4.60993 5.518 4.68293 5.818L4.68593 5.83C5.16993 7.197 5.68293 8.345 6.27293 9.445L6.20593 9.308C6.68793 10.278 7.22093 11.113 7.82893 11.884L7.80593 11.853C8.33926 12.5077 8.75526 12.835 9.05393 12.835C9.06293 12.836 9.07393 12.836 9.08593 12.836C9.23393 12.836 9.36293 12.756 9.43293 12.636L9.43393 12.634C9.50793 12.444 9.55093 12.223 9.55093 11.993C9.55093 11.944 9.54893 11.895 9.54493 11.847V11.853V7.974C9.52393 7.517 9.41193 7.09 9.22493 6.707L9.23293 6.726C9.10893 6.462 8.95993 6.234 8.78293 6.031L8.78593 6.035C8.62193 5.871 8.50993 5.656 8.47493 5.416L8.47393 5.41C8.47393 5.24 8.55193 5.087 8.67393 4.987L8.67493 4.986C8.79593 4.875 8.95793 4.808 9.13493 4.808H9.14293H13.2889C13.3109 4.805 13.3359 4.804 13.3619 4.804C13.5569 4.804 13.7319 4.892 13.8479 5.03L13.8489 5.031C13.9519 5.219 14.0129 5.444 14.0129 5.682C14.0129 5.72 14.0109 5.757 14.0079 5.794V5.789V10.962C14.0059 10.986 14.0049 11.014 14.0049 11.042C14.0049 11.226 14.0559 11.399 14.1439 11.546L14.1419 11.542C14.2149 11.65 14.3369 11.72 14.4749 11.72H14.4759C14.6519 11.708 14.8119 11.65 14.9469 11.558L14.9439 11.56C15.2159 11.373 15.4499 11.16 15.6529 10.919L15.6569 10.914C16.2639 10.228 16.8239 9.47 17.3119 8.664L17.3509 8.594C17.6949 8.024 18.0669 7.322 18.4039 6.601L18.4659 6.454L18.9119 5.562C19.0669 5.116 19.4829 4.802 19.9719 4.802C19.9909 4.802 20.0099 4.802 20.0289 4.803H20.0259H22.6569C23.3676 4.803 23.6343 5.13 23.4569 5.784H23.4559Z" fill="white"/>
</svg>
